<svg width="19" height="18" viewBox="0 0 19 18" fill="none" xmlns="http://www.w3.org/2000/svg">
<path d="M6.25 17.75C6.94036 17.75 7.5 17.1904 7.5 16.5C7.5 15.8096 6.94036 15.25 6.25 15.25C5.55964 15.25 5 15.8096 5 16.5C5 17.1904 5.55964 17.75 6.25 17.75Z" fill="#333333"/>
<path d="M15 17.75C15.6904 17.75 16.25 17.1904 16.25 16.5C16.25 15.8096 15.6904 15.25 15 15.25C14.3096 15.25 13.75 15.8096 13.75 16.5C13.75 17.1904 14.3096 17.75 15 17.75Z" fill="#333333"/>
<path d="M17.5 3.37513H3.6375L3.125 0.750127C3.09578 0.60683 3.01724 0.478316 2.90304 0.386957C2.78884 0.295598 2.64622 0.247178 2.5 0.250127H0V1.50013H1.9875L4.375 13.5001C4.40422 13.6434 4.48276 13.7719 4.59696 13.8633C4.71116 13.9547 4.85378 14.0031 5 14.0001H16.25V12.7501H5.5125L5 10.2501H16.25C16.3945 10.2537 16.5357 10.207 16.6497 10.1181C16.7636 10.0292 16.8432 9.90361 16.875 9.76263L18.125 4.13763C18.1459 4.04489 18.1455 3.9486 18.1236 3.85608C18.1017 3.76357 18.059 3.67726 17.9987 3.60373C17.9385 3.53021 17.8622 3.4714 17.7758 3.43178C17.6894 3.39217 17.595 3.37279 17.5 3.37513ZM15.75 9.00013H4.7625L3.8875 4.62513H16.7188L15.75 9.00013Z" fill="#333333"/>
</svg>
