<svg width="20" height="20" viewBox="0 0 20 20" fill="none" xmlns="http://www.w3.org/2000/svg">
<path d="M6.25 18.75C6.94036 18.75 7.5 18.1904 7.5 17.5C7.5 16.8096 6.94036 16.25 6.25 16.25C5.55964 16.25 5 16.8096 5 17.5C5 18.1904 5.55964 18.75 6.25 18.75Z" fill="#00529C"/>
<path d="M15 18.75C15.6904 18.75 16.25 18.1904 16.25 17.5C16.25 16.8096 15.6904 16.25 15 16.25C14.3096 16.25 13.75 16.8096 13.75 17.5C13.75 18.1904 14.3096 18.75 15 18.75Z" fill="#00529C"/>
<path d="M3.6375 4.37513H17.5C17.595 4.37279 17.6894 4.39217 17.7758 4.43178C17.8622 4.4714 17.9385 4.53021 17.9987 4.60373C18.059 4.67726 18.1017 4.76357 18.1236 4.85608C18.1455 4.9486 18.1459 5.04489 18.125 5.13763L16.875 10.7626C16.8432 10.9036 16.7636 11.0292 16.6497 11.1181C16.5357 11.207 16.3945 11.2537 16.25 11.2501H5L5.5125 13.7501H16.25V15.0001H5C4.85378 15.0031 4.71116 14.9547 4.59696 14.8633C4.48276 14.7719 4.40422 14.6434 4.375 14.5001L1.9875 2.50013H0V1.25013H2.5C2.64622 1.24718 2.78884 1.2956 2.90304 1.38696C3.01724 1.47832 3.09578 1.60683 3.125 1.75013L3.6375 4.37513Z" fill="#00529C"/>
</svg>
