<svg width="18" height="14" viewBox="0 0 18 14" fill="none" xmlns="http://www.w3.org/2000/svg">
<path d="M17.4375 12.8859H17.0766V0.557052C17.0766 0.249422 16.8247 0 16.5141 0H13.0831C12.7724 0 12.5206 0.249422 12.5206 0.557052V12.8859H11.2782V3.15653C11.2782 2.84891 11.0263 2.59948 10.7157 2.59948H7.28462C6.97398 2.59948 6.72212 2.84891 6.72212 3.15653V12.8859H5.47971V5.75615C5.47971 5.44852 5.22784 5.1991 4.91721 5.1991H1.48618C1.17554 5.1991 0.923676 5.44852 0.923676 5.75615V12.8859H0.5625C0.251862 12.8859 0 13.1353 0 13.4429C0 13.7506 0.251862 14 0.5625 14H17.4375C17.7481 14 18 13.7506 18 13.4429C18 13.1353 17.7481 12.8859 17.4375 12.8859ZM13.6454 1.1141H15.9515V12.8859H13.6454V1.1141ZM7.84712 12.8859V3.71359H10.1532V12.8859H7.84712ZM2.04868 6.31321H4.35471V12.8859H2.04868V6.31321Z" fill="#333333"/>
</svg>
