<svg width="20" height="20" viewBox="0 0 20 20" fill="none" xmlns="http://www.w3.org/2000/svg">
<path d="M18.4375 15.8859H18.0766V3.55705C18.0766 3.24942 17.8247 3 17.5141 3H14.0831C13.7724 3 13.5206 3.24942 13.5206 3.55705V15.8859H12.2782V6.15653C12.2782 5.84891 12.0263 5.59948 11.7157 5.59948H8.28462C7.97398 5.59948 7.72212 5.84891 7.72212 6.15653V15.8859H6.47971V8.75615C6.47971 8.44852 6.22784 8.1991 5.91721 8.1991H2.48618C2.17554 8.1991 1.92368 8.44852 1.92368 8.75615V15.8859H1.5625C1.25186 15.8859 1 16.1353 1 16.4429C1 16.7506 1.25186 17 1.5625 17H18.4375C18.7481 17 19 16.7506 19 16.4429C19 16.1353 18.7481 15.8859 18.4375 15.8859ZM14.6454 4.1141H16.9515V15.8859H14.6454V4.1141ZM8.84712 15.8859V6.71359H11.1532V15.8859H8.84712ZM3.04868 9.31321H5.35471V15.8859H3.04868V9.31321Z" fill="#00529C"/>
<rect x="3" y="9" width="3" height="7" fill="#00529C"/>
<rect x="8" y="6" width="4" height="10" fill="#00529C"/>
<rect x="14" y="4" width="4" height="12" fill="#00529C"/>
</svg>
