<svg width="20" height="20" viewBox="0 0 20 20" fill="none" xmlns="http://www.w3.org/2000/svg">
<path d="M12.223 2.86344C12.7961 2.62304 13.4115 2.49947 14.0329 2.5C14.6543 2.50017 15.2694 2.62405 15.8425 2.86441C16.4155 3.10478 16.9349 3.45682 17.3704 3.9C18.2568 4.80227 18.7534 6.01648 18.7534 7.28125C18.7534 8.54603 18.2568 9.76024 17.3704 10.6625L10.0017 18.125L2.63294 10.6625C1.74661 9.76024 1.25 8.54603 1.25 7.28125C1.25 6.01648 1.74661 4.80227 2.63294 3.9C3.0686 3.45705 3.58807 3.10526 4.16107 2.86512C4.73408 2.62498 5.34915 2.50131 5.97044 2.50131C6.59173 2.50131 7.2068 2.62498 7.77981 2.86512C8.35281 3.10526 8.87228 3.45705 9.30794 3.9L10.0017 4.6L10.6954 3.9C11.1306 3.45625 11.6499 3.10384 12.223 2.86344Z" fill="#00529C"/>
</svg>
