<svg width="20" height="20" viewBox="0 0 20 20" fill="none" xmlns="http://www.w3.org/2000/svg">
<path d="M14.0329 3.75C14.488 3.74962 14.9385 3.84008 15.3582 4.01609C15.7778 4.1921 16.1581 4.45011 16.4767 4.775C17.1332 5.44149 17.5012 6.33947 17.5012 7.275C17.5012 8.21053 17.1332 9.10851 16.4767 9.775L10.0017 16.3313L3.52669 9.775C2.87018 9.10851 2.50218 8.21053 2.50218 7.275C2.50218 6.33947 2.87018 5.44149 3.52669 4.775C3.8455 4.45035 4.2258 4.19247 4.64538 4.01643C5.06497 3.8404 5.51542 3.74973 5.97044 3.74973C6.42546 3.74973 6.87591 3.8404 7.2955 4.01643C7.71508 4.19247 8.09538 4.45035 8.41419 4.775L10.0017 6.4L11.5829 4.7875C11.9006 4.45874 12.2813 4.19741 12.7022 4.01915C13.1232 3.84089 13.5758 3.74935 14.0329 3.75ZM14.0329 2.5C13.4115 2.49947 12.7961 2.62304 12.223 2.86344C11.6499 3.10384 11.1306 3.45625 10.6954 3.9L10.0017 4.6L9.30794 3.9C8.87228 3.45705 8.35281 3.10526 7.77981 2.86512C7.2068 2.62498 6.59173 2.50131 5.97044 2.50131C5.34915 2.50131 4.73408 2.62498 4.16107 2.86512C3.58807 3.10526 3.0686 3.45705 2.63294 3.9C1.74661 4.80227 1.25 6.01648 1.25 7.28125C1.25 8.54603 1.74661 9.76024 2.63294 10.6625L10.0017 18.125L17.3704 10.6625C18.2568 9.76024 18.7534 8.54603 18.7534 7.28125C18.7534 6.01648 18.2568 4.80227 17.3704 3.9C16.9349 3.45682 16.4155 3.10478 15.8425 2.86441C15.2694 2.62405 14.6543 2.50017 14.0329 2.5Z" fill="#333333"/>
</svg>
