<svg width="18" height="17" viewBox="0 0 18 17" fill="none" xmlns="http://www.w3.org/2000/svg">
<path d="M11.2211 0.86344C11.7942 0.623036 12.4095 0.499475 13.031 0.5C13.6524 0.500173 14.2675 0.624051 14.8405 0.864415C15.4135 1.10478 15.9329 1.45682 16.3685 1.9C17.2548 2.80227 17.7514 4.01648 17.7514 5.28125C17.7514 6.54603 17.2548 7.76024 16.3685 8.6625L8.99974 16.125L1.63099 8.6625C0.744661 7.76024 0.248047 6.54603 0.248047 5.28125C0.248047 4.01648 0.744661 2.80227 1.63099 1.9C2.06664 1.45705 2.58612 1.10526 3.15912 0.865121C3.73212 0.624984 4.3472 0.501311 4.96849 0.501311C5.58978 0.501311 6.20485 0.624984 6.77785 0.865121C7.35086 1.10526 7.87033 1.45705 8.30599 1.9L8.99974 2.6L9.69349 1.9C10.1286 1.45625 10.648 1.10384 11.2211 0.86344Z" fill="#00529C"/>
</svg>
