<svg width="16" height="16" viewBox="0 0 16 16" fill="none" xmlns="http://www.w3.org/2000/svg">
<path fill-rule="evenodd" clip-rule="evenodd" d="M4.92157 0.578003C5.71778 0.541349 5.97165 0.533203 7.99987 0.533203C10.0281 0.533203 10.282 0.542027 11.0775 0.578003C11.873 0.613979 12.4161 0.740912 12.8912 0.924864C13.3888 1.11289 13.8402 1.4068 14.2135 1.78692C14.5936 2.15958 14.8868 2.61029 15.0742 3.10852C15.2588 3.58368 15.3851 4.12671 15.4217 4.92089C15.4584 5.71846 15.4665 5.97233 15.4665 7.99987C15.4665 10.0281 15.4577 10.282 15.4217 11.0782C15.3858 11.8724 15.2588 12.4154 15.0742 12.8905C14.8868 13.3888 14.5931 13.8403 14.2135 14.2135C13.8402 14.5936 13.3888 14.8869 12.8912 15.0742C12.4161 15.2588 11.873 15.3851 11.0788 15.4217C10.282 15.4584 10.0281 15.4665 7.99987 15.4665C5.97165 15.4665 5.71778 15.4577 4.92157 15.4217C4.12738 15.3858 3.58435 15.2588 3.1092 15.0742C2.61092 14.8868 2.15946 14.5931 1.78625 14.2135C1.40638 13.8406 1.11242 13.3894 0.924864 12.8912C0.740912 12.4161 0.614658 11.873 0.578003 11.0789C0.541349 10.2813 0.533203 10.0274 0.533203 7.99987C0.533203 5.97165 0.542027 5.71778 0.578003 4.92225C0.613979 4.12671 0.740912 3.58368 0.924864 3.10852C1.1127 2.61035 1.40688 2.15911 1.78692 1.78625C2.15961 1.40646 2.61061 1.11251 3.10852 0.924864C3.58368 0.740912 4.12671 0.614658 4.92089 0.578003H4.92157ZM11.0171 1.922C10.2297 1.88603 9.99347 1.87856 7.99987 1.87856C6.00627 1.87856 5.77005 1.88603 4.98266 1.922C4.25432 1.95526 3.85926 2.07677 3.59589 2.17926C3.24768 2.31502 2.99856 2.47589 2.73723 2.73723C2.4895 2.97823 2.29885 3.27162 2.17926 3.59589C2.07677 3.85926 1.95526 4.25432 1.922 4.98266C1.88603 5.77005 1.87856 6.00627 1.87856 7.99987C1.87856 9.99347 1.88603 10.2297 1.922 11.0171C1.95526 11.7454 2.07677 12.1405 2.17926 12.4038C2.29873 12.7276 2.48947 13.0215 2.73723 13.2625C2.9782 13.5103 3.27211 13.701 3.59589 13.8205C3.85926 13.923 4.25432 14.0445 4.98266 14.0777C5.77005 14.1137 6.00559 14.1212 7.99987 14.1212C9.99415 14.1212 10.2297 14.1137 11.0171 14.0777C11.7454 14.0445 12.1405 13.923 12.4038 13.8205C12.7521 13.6847 13.0012 13.5238 13.2625 13.2625C13.5103 13.0215 13.701 12.7276 13.8205 12.4038C13.923 12.1405 14.0445 11.7454 14.0777 11.0171C14.1137 10.2297 14.1212 9.99347 14.1212 7.99987C14.1212 6.00627 14.1137 5.77005 14.0777 4.98266C14.0445 4.25432 13.923 3.85926 13.8205 3.59589C13.6847 3.24768 13.5238 2.99856 13.2625 2.73723C13.0215 2.48952 12.7281 2.29887 12.4038 2.17926C12.1405 2.07677 11.7454 1.95526 11.0171 1.922ZM7.04617 10.3016C7.57879 10.5234 8.17186 10.5533 8.72409 10.3863C9.27631 10.2193 9.75344 9.8658 10.074 9.38612C10.3945 8.90644 10.5386 8.33035 10.4815 7.75626C10.4245 7.18216 10.17 6.64567 9.76132 6.23841C9.50083 5.97808 9.18585 5.77875 8.83908 5.65476C8.4923 5.53077 8.12234 5.48521 7.75584 5.52135C7.38934 5.5575 7.03541 5.67446 6.71954 5.86381C6.40367 6.05316 6.13371 6.31019 5.92909 6.6164C5.72448 6.9226 5.5903 7.27037 5.53622 7.63465C5.48214 7.99894 5.5095 8.37069 5.61633 8.72313C5.72317 9.07557 5.90681 9.39994 6.15405 9.67289C6.4013 9.94584 6.70598 10.1606 7.04617 10.3016ZM5.28607 5.28608C5.64246 4.9297 6.06554 4.647 6.53117 4.45413C6.99681 4.26126 7.49587 4.16199 7.99987 4.16199C8.50387 4.16199 9.00293 4.26126 9.46856 4.45413C9.9342 4.647 10.3573 4.9297 10.7137 5.28608C11.07 5.64246 11.3527 6.06554 11.5456 6.53117C11.7385 6.99681 11.8378 7.49587 11.8378 7.99987C11.8378 8.50387 11.7385 9.00293 11.5456 9.46856C11.3527 9.9342 11.07 10.3573 10.7137 10.7137C9.99392 11.4334 9.01774 11.8378 7.99987 11.8378C6.982 11.8378 6.00582 11.4334 5.28607 10.7137C4.56633 9.99392 4.16198 9.01774 4.16198 7.99987C4.16198 6.982 4.56633 6.00582 5.28607 5.28608ZM12.6889 4.73354C12.7772 4.65023 12.8479 4.55005 12.8968 4.43893C12.9458 4.32781 12.9719 4.208 12.9736 4.08661C12.9754 3.96522 12.9528 3.8447 12.9072 3.7322C12.8615 3.6197 12.7938 3.5175 12.7079 3.43165C12.6221 3.34581 12.5199 3.27806 12.4074 3.23241C12.2949 3.18677 12.1743 3.16417 12.053 3.16594C11.9316 3.16771 11.8118 3.19382 11.7006 3.24272C11.5895 3.29162 11.4893 3.36232 11.406 3.45063C11.244 3.62239 11.1553 3.85052 11.1587 4.08661C11.1622 4.3227 11.2575 4.54815 11.4245 4.71511C11.5914 4.88207 11.8169 4.97738 12.053 4.98082C12.289 4.98427 12.5172 4.89556 12.6889 4.73354Z" fill="white"/>
</svg>
