<svg width="28" height="28" viewBox="0 0 28 28" fill="none" xmlns="http://www.w3.org/2000/svg">
<circle cx="14" cy="14" r="14" fill="#00529C"/>
<path fill-rule="evenodd" clip-rule="evenodd" d="M10.9216 6.578C11.7178 6.54135 11.9717 6.5332 13.9999 6.5332C16.0281 6.5332 16.282 6.54203 17.0775 6.578C17.873 6.61398 18.4161 6.74091 18.8912 6.92486C19.3888 7.11289 19.8402 7.4068 20.2135 7.78692C20.5936 8.15958 20.8868 8.61029 21.0742 9.10852C21.2588 9.58368 21.3851 10.1267 21.4217 10.9209C21.4584 11.7185 21.4665 11.9723 21.4665 13.9999C21.4665 16.0281 21.4577 16.282 21.4217 17.0782C21.3858 17.8724 21.2588 18.4154 21.0742 18.8905C20.8868 19.3888 20.5931 19.8403 20.2135 20.2135C19.8402 20.5936 19.3888 20.8869 18.8912 21.0742C18.4161 21.2588 17.873 21.3851 17.0788 21.4217C16.282 21.4584 16.0281 21.4665 13.9999 21.4665C11.9717 21.4665 11.7178 21.4577 10.9216 21.4217C10.1274 21.3858 9.58435 21.2588 9.1092 21.0742C8.61092 20.8868 8.15946 20.5931 7.78625 20.2135C7.40638 19.8406 7.11242 19.3894 6.92486 18.8912C6.74091 18.4161 6.61466 17.873 6.578 17.0789C6.54135 16.2813 6.5332 16.0274 6.5332 13.9999C6.5332 11.9717 6.54203 11.7178 6.578 10.9222C6.61398 10.1267 6.74091 9.58368 6.92486 9.10852C7.1127 8.61035 7.40688 8.15911 7.78692 7.78625C8.15961 7.40646 8.61061 7.11251 9.10852 6.92486C9.58368 6.74091 10.1267 6.61466 10.9209 6.578H10.9216ZM17.0171 7.922C16.2297 7.88603 15.9935 7.87856 13.9999 7.87856C12.0063 7.87856 11.7701 7.88603 10.9827 7.922C10.2543 7.95526 9.85926 8.07677 9.59589 8.17926C9.24768 8.31502 8.99856 8.47589 8.73723 8.73723C8.4895 8.97823 8.29885 9.27162 8.17926 9.59589C8.07677 9.85926 7.95526 10.2543 7.922 10.9827C7.88603 11.7701 7.87856 12.0063 7.87856 13.9999C7.87856 15.9935 7.88603 16.2297 7.922 17.0171C7.95526 17.7454 8.07677 18.1405 8.17926 18.4038C8.29873 18.7276 8.48947 19.0215 8.73723 19.2625C8.9782 19.5103 9.27211 19.701 9.59589 19.8205C9.85926 19.923 10.2543 20.0445 10.9827 20.0777C11.7701 20.1137 12.0056 20.1212 13.9999 20.1212C15.9941 20.1212 16.2297 20.1137 17.0171 20.0777C17.7454 20.0445 18.1405 19.923 18.4038 19.8205C18.7521 19.6847 19.0012 19.5238 19.2625 19.2625C19.5103 19.0215 19.701 18.7276 19.8205 18.4038C19.923 18.1405 20.0445 17.7454 20.0777 17.0171C20.1137 16.2297 20.1212 15.9935 20.1212 13.9999C20.1212 12.0063 20.1137 11.7701 20.0777 10.9827C20.0445 10.2543 19.923 9.85926 19.8205 9.59589C19.6847 9.24768 19.5238 8.99856 19.2625 8.73723C19.0215 8.48952 18.7281 8.29887 18.4038 8.17926C18.1405 8.07677 17.7454 7.95526 17.0171 7.922ZM13.0462 16.3016C13.5788 16.5234 14.1719 16.5533 14.7241 16.3863C15.2763 16.2193 15.7534 15.8658 16.074 15.3861C16.3945 14.9064 16.5386 14.3304 16.4815 13.7563C16.4245 13.1822 16.17 12.6457 15.7613 12.2384C15.5008 11.9781 15.1859 11.7787 14.8391 11.6548C14.4923 11.5308 14.1223 11.4852 13.7558 11.5214C13.3893 11.5575 13.0354 11.6745 12.7195 11.8638C12.4037 12.0532 12.1337 12.3102 11.9291 12.6164C11.7245 12.9226 11.5903 13.2704 11.5362 13.6347C11.4821 13.9989 11.5095 14.3707 11.6163 14.7231C11.7232 15.0756 11.9068 15.3999 12.1541 15.6729C12.4013 15.9458 12.706 16.1606 13.0462 16.3016ZM11.2861 11.2861C11.6425 10.9297 12.0655 10.647 12.5312 10.4541C12.9968 10.2613 13.4959 10.162 13.9999 10.162C14.5039 10.162 15.0029 10.2613 15.4686 10.4541C15.9342 10.647 16.3573 10.9297 16.7137 11.2861C17.07 11.6425 17.3527 12.0655 17.5456 12.5312C17.7385 12.9968 17.8378 13.4959 17.8378 13.9999C17.8378 14.5039 17.7385 15.0029 17.5456 15.4686C17.3527 15.9342 17.07 16.3573 16.7137 16.7137C15.9939 17.4334 15.0177 17.8378 13.9999 17.8378C12.982 17.8378 12.0058 17.4334 11.2861 16.7137C10.5663 15.9939 10.162 15.0177 10.162 13.9999C10.162 12.982 10.5663 12.0058 11.2861 11.2861ZM18.6889 10.7335C18.7772 10.6502 18.8479 10.5501 18.8968 10.4389C18.9458 10.3278 18.9719 10.208 18.9736 10.0866C18.9754 9.96522 18.9528 9.8447 18.9072 9.7322C18.8615 9.6197 18.7938 9.5175 18.7079 9.43165C18.6221 9.34581 18.5199 9.27806 18.4074 9.23241C18.2949 9.18677 18.1743 9.16417 18.053 9.16594C17.9316 9.16771 17.8118 9.19382 17.7006 9.24272C17.5895 9.29162 17.4893 9.36232 17.406 9.45063C17.244 9.62239 17.1553 9.85052 17.1587 10.0866C17.1622 10.3227 17.2575 10.5482 17.4245 10.7151C17.5914 10.8821 17.8169 10.9774 18.053 10.9808C18.289 10.9843 18.5172 10.8956 18.6889 10.7335Z" fill="white"/>
</svg>
