<svg width="10" height="13" viewBox="0 0 10 13" fill="none" xmlns="http://www.w3.org/2000/svg">
  <path
    d="M4.8125 7.5C4.37985 7.5 3.95692 7.37171 3.59719 7.13134C3.23746 6.89098 2.95708 6.54933 2.79151 6.14962C2.62595 5.74991 2.58263 5.31007 2.66703 4.88574C2.75144 4.46141 2.95978 4.07163 3.26571 3.76571C3.57163 3.45978 3.96141 3.25144 4.38574 3.16703C4.81008 3.08263 5.24991 3.12595 5.64962 3.29151C6.04934 3.45708 6.39098 3.73746 6.63134 4.09719C6.87171 4.45692 7 4.87985 7 5.3125C6.99931 5.89245 6.76862 6.44845 6.35853 6.85853C5.94845 7.26862 5.39245 7.49931 4.8125 7.5ZM4.8125 4C4.55291 4 4.29915 4.07698 4.08332 4.2212C3.86748 4.36542 3.69925 4.5704 3.59991 4.81023C3.50057 5.05006 3.47458 5.31396 3.52522 5.56856C3.57586 5.82316 3.70087 6.05702 3.88442 6.24058C4.06798 6.42414 4.30185 6.54914 4.55645 6.59978C4.81105 6.65043 5.07495 6.62443 5.31477 6.52509C5.5546 6.42575 5.75959 6.25753 5.90381 6.04169C6.04803 5.82585 6.125 5.57209 6.125 5.3125C6.12465 4.96451 5.98626 4.63087 5.7402 4.38481C5.49413 4.13874 5.16049 4.00035 4.8125 4Z"
    fill="#333333" />
  <path
    d="M4.8125 12.75L1.12176 8.39731C1.07047 8.33195 1.01972 8.26618 0.969505 8.2C0.339059 7.36953 -0.00152302 6.35516 5.12001e-06 5.3125C5.12001e-06 4.03615 0.507035 2.81207 1.40955 1.90955C2.31207 1.00703 3.53615 0.5 4.8125 0.5C6.08886 0.5 7.31294 1.00703 8.21546 1.90955C9.11798 2.81207 9.625 4.03615 9.625 5.3125C9.62653 6.35469 9.2861 7.3686 8.65594 8.19869L8.6555 8.2C8.6555 8.2 8.52425 8.37238 8.50457 8.39556L4.8125 12.75ZM1.66776 7.67281C1.66863 7.67281 1.77013 7.80756 1.79332 7.83644L4.8125 11.3973L7.83563 7.83162C7.85488 7.80756 7.95725 7.67194 7.95769 7.6715C8.47269 6.99299 8.75102 6.16433 8.75 5.3125C8.75 4.26821 8.33516 3.26669 7.59674 2.52827C6.85831 1.78984 5.85679 1.375 4.8125 1.375C3.76821 1.375 2.7667 1.78984 2.02827 2.52827C1.28985 3.26669 0.875005 4.26821 0.875005 5.3125C0.874087 6.16486 1.15272 6.99399 1.66819 7.67281H1.66776Z"
    fill="#333333" />
</svg>