<svg width="15" height="15" viewBox="0 0 15 15" fill="none" xmlns="http://www.w3.org/2000/svg">
<path d="M6.05469 12.0703C7.26562 12.0703 8.39062 11.6875 9.32031 11.0391L12.7344 14.4531C12.9141 14.6328 13.1484 14.7188 13.3984 14.7188C13.9219 14.7188 14.2969 14.3125 14.2969 13.7969C14.2969 13.5547 14.2188 13.3281 14.0391 13.1484L10.6484 9.75C11.3594 8.79688 11.7812 7.61719 11.7812 6.34375C11.7812 3.1875 9.20312 0.617188 6.05469 0.617188C2.90625 0.617188 0.328125 3.17969 0.328125 6.34375C0.328125 9.49219 2.89844 12.0703 6.05469 12.0703ZM6.05469 10.7344C3.64062 10.7344 1.65625 8.75 1.65625 6.34375C1.65625 3.9375 3.64062 1.95312 6.05469 1.95312C8.46094 1.95312 10.4453 3.9375 10.4453 6.34375C10.4453 8.75 8.46094 10.7344 6.05469 10.7344Z" fill="#333333"/>
</svg>
