<svg width="20" height="20" viewBox="0 0 20 20" fill="none" xmlns="http://www.w3.org/2000/svg">
<path d="M18.7504 17.8691L14.0316 13.1254C15.1597 11.7642 15.7201 10.0209 15.5964 8.25737C15.4728 6.49386 14.6745 4.84577 13.3675 3.65541C12.0605 2.46505 10.3452 1.8239 8.57786 1.86516C6.81051 1.90641 5.12697 2.62688 3.87692 3.87692C2.62688 5.12697 1.90641 6.81051 1.86516 8.57786C1.8239 10.3452 2.46505 12.0605 3.65541 13.3675C4.84577 14.6745 6.49386 15.4728 8.25737 15.5964C10.0209 15.7201 11.7642 15.1597 13.1254 14.0316L17.8691 18.7504L18.7504 17.8691ZM3.12535 8.75035C3.12535 7.63783 3.45525 6.5503 4.07334 5.62527C4.69142 4.70024 5.56992 3.97927 6.59776 3.55353C7.62559 3.12779 8.75659 3.01639 9.84774 3.23344C10.9389 3.45048 11.9412 3.98621 12.7278 4.77288C13.5145 5.55955 14.0502 6.56183 14.2673 7.65297C14.4843 8.74411 14.3729 9.87511 13.9472 10.9029C13.5214 11.9308 12.8005 12.8093 11.8754 13.4274C10.9504 14.0455 9.86287 14.3754 8.75035 14.3754C7.25851 14.3754 5.82777 13.7827 4.77288 12.7278C3.71799 11.6729 3.12535 10.2422 3.12535 8.75035Z" fill="#333333"/>
</svg>
