<svg width="32" height="32" viewBox="0 0 32 32" fill="none" xmlns="http://www.w3.org/2000/svg">
  <rect x="0.5" y="0.5" width="31" height="31" stroke="#C4C4C4" />
  <path
    d="M26.3003 16.3904C26.3003 19.8969 23.4492 22.7808 19.9099 22.7808C16.4034 22.7808 13.5195 19.8969 13.5195 16.3904C13.5195 12.8839 16.3706 10 19.8771 10C23.4492 10 26.3003 12.8839 26.3003 16.3904Z"
    fill="#DCDCDC" />
  <path
    d="M17.748 16.4232C17.748 15.9643 17.6825 15.5056 17.6169 15.0796H13.6844C13.7171 14.8501 13.7827 14.6535 13.8482 14.3914H17.3547C17.2892 14.1619 17.1909 13.9326 17.0926 13.7032H14.1104C14.2087 13.4737 14.3398 13.2771 14.4709 13.015H16.7321C16.601 12.7856 16.4372 12.5562 16.2405 12.3268H14.9952C15.1918 12.0974 15.3885 11.9007 15.6506 11.6713C14.5364 10.6227 13.0289 10 11.3576 10C7.88387 10.0983 5 12.8839 5 16.3904C5 19.8969 7.8511 22.7808 11.3904 22.7808C13.0617 22.7808 14.5364 22.1254 15.6834 21.1095C15.9128 20.9128 16.1095 20.6834 16.3388 20.4213H15.028C14.8641 20.2246 14.7003 19.9952 14.5692 19.7658H16.7977C16.9287 19.5692 17.0598 19.3398 17.1581 19.0776H14.1759C14.0776 18.881 13.9793 18.6516 13.9138 18.3894H17.4203C17.6169 17.7996 17.748 17.1441 17.748 16.4232Z"
    fill="#A8A8A8" />
  <path
    d="M13.6511 18.029L13.7494 17.4392C13.7167 17.4392 13.6511 17.472 13.5856 17.472C13.3562 17.472 13.3234 17.3408 13.3562 17.2753L13.5528 16.0956H13.9133L14.0116 15.4401H13.6839L13.7494 15.0469H13.0612C13.0612 15.0469 12.668 17.2753 12.668 17.5375C12.668 17.9307 12.8974 18.1274 13.2251 18.1274C13.4217 18.1274 13.5856 18.0618 13.6511 18.029Z"
    fill="white" />
  <path
    d="M13.8809 16.9471C13.8809 17.8975 14.5363 18.1268 15.0606 18.1268C15.5522 18.1268 15.7816 18.0285 15.7816 18.0285L15.9127 17.3731C15.9127 17.3731 15.5522 17.537 15.1917 17.537C14.438 17.537 14.5691 16.9799 14.5691 16.9799H15.9455C15.9455 16.9799 16.0438 16.5538 16.0438 16.3572C16.0438 15.9312 15.8144 15.3741 15.0606 15.3741C14.4052 15.3413 13.8809 16.095 13.8809 16.9471ZM15.0606 15.9639C15.4211 15.9639 15.3556 16.39 15.3556 16.4227H14.6018C14.6346 16.39 14.7001 15.9639 15.0606 15.9639Z"
    fill="white" />
  <path
    d="M19.3543 18.0286L19.4854 17.2749C19.4854 17.2749 19.1577 17.4388 18.8955 17.4388C18.4367 17.4388 18.2073 17.0783 18.2073 16.6523C18.2073 15.833 18.6006 15.4069 19.0921 15.4069C19.4198 15.4069 19.7148 15.6036 19.7148 15.6036L19.8131 14.8826C19.8131 14.8826 19.4198 14.7188 19.0266 14.7188C18.2401 14.7188 17.4863 15.4069 17.4863 16.685C17.4863 17.5371 17.8796 18.0942 18.6989 18.0942C18.9938 18.127 19.3543 18.0286 19.3543 18.0286Z"
    fill="white" />
  <path
    d="M9.94802 15.3418C9.4892 15.3418 9.12871 15.4729 9.12871 15.4729L9.03041 16.0627C9.03041 16.0627 9.32534 15.9317 9.78417 15.9317C10.0135 15.9317 10.2102 15.9644 10.2102 16.1611C10.2102 16.2922 10.1774 16.3249 10.1774 16.3249H9.88247C9.29257 16.3249 8.66992 16.5543 8.66992 17.3408C8.66992 17.9635 9.06319 18.0946 9.32534 18.0946C9.78417 18.0946 10.0135 17.7996 10.0463 17.7996L10.0135 18.0618H10.5707L10.8328 16.1939C10.8328 15.3745 10.1774 15.3418 9.94802 15.3418ZM10.0791 16.8493C10.0791 16.9476 10.0135 17.5047 9.62028 17.5047C9.42368 17.5047 9.35812 17.3408 9.35812 17.2425C9.35812 17.0786 9.45642 16.8493 9.98076 16.8493C10.0463 16.8493 10.0791 16.8493 10.0791 16.8493Z"
    fill="white" />
  <path
    d="M11.4892 18.0942C11.6531 18.0942 12.5051 18.1269 12.5051 17.2093C12.5051 16.3573 11.6858 16.5211 11.6858 16.1934C11.6858 16.0296 11.8169 15.964 12.0463 15.964C12.1446 15.964 12.5051 15.9968 12.5051 15.9968L12.6034 15.3742C12.6034 15.3742 12.374 15.3086 11.948 15.3086C11.4564 15.3086 10.9321 15.5052 10.9321 16.1934C10.9321 16.9799 11.7841 16.9144 11.7841 17.2093C11.7841 17.406 11.5548 17.4387 11.3909 17.4387C11.096 17.4387 10.7683 17.3404 10.7683 17.3404L10.6699 17.9631C10.7355 18.0286 10.9321 18.0942 11.4892 18.0942Z"
    fill="white" />
  <path
    d="M24.9901 14.8164L24.859 15.734C24.859 15.734 24.5969 15.4063 24.2036 15.4063C23.581 15.4063 23.0566 16.16 23.0566 17.0449C23.0566 17.602 23.3188 18.1591 23.9087 18.1591C24.3019 18.1591 24.5641 17.8969 24.5641 17.8969L24.5313 18.1263H25.2195L25.7111 14.882L24.9901 14.8164ZM24.6624 16.5861C24.6624 16.9466 24.4986 17.4381 24.1053 17.4381C23.8759 17.4381 23.7448 17.2415 23.7448 16.881C23.7448 16.3239 23.9742 15.9962 24.3019 15.9962C24.5313 16.0289 24.6624 16.1928 24.6624 16.5861Z"
    fill="white" />
  <path
    d="M6.24527 18.0608L6.63852 15.6357L6.70406 18.0608H7.16286L8.04768 15.6357L7.6872 18.0608H8.40817L8.96529 14.8164H7.85106L7.16286 16.8155L7.13009 14.8164H6.14695L5.58984 18.0608H6.24527Z"
    fill="white" />
  <path
    d="M16.7322 18.0607C16.9289 16.9465 16.9616 16.0289 17.4532 16.1927C17.5188 15.7667 17.6171 15.5701 17.6826 15.4062H17.5515C17.2566 15.4062 16.9944 15.7995 16.9944 15.7995L17.0599 15.439H16.4045L15.9785 18.0607H16.7322Z"
    fill="white" />
  <path
    d="M20.9265 15.3418C20.4677 15.3418 20.1072 15.4729 20.1072 15.4729L20.0089 16.0627C20.0089 16.0627 20.3039 15.9317 20.7626 15.9317C20.9921 15.9317 21.1887 15.9644 21.1887 16.1611C21.1887 16.2922 21.1559 16.3249 21.1559 16.3249H20.861C20.2711 16.3249 19.6484 16.5543 19.6484 17.3408C19.6484 17.9635 20.0417 18.0946 20.3039 18.0946C20.7626 18.0946 20.9921 17.7996 21.0248 17.7996L20.9921 18.0618H21.6147L21.8769 16.1939C21.8769 15.3745 21.1559 15.3418 20.9265 15.3418ZM21.0904 16.8493C21.0904 16.9476 21.0248 17.5047 20.6316 17.5047C20.4349 17.5047 20.3694 17.3408 20.3694 17.2425C20.3694 17.0786 20.4677 16.8493 20.9921 16.8493C21.0576 16.8493 21.0576 16.8493 21.0904 16.8493Z"
    fill="white" />
  <path
    d="M22.4022 18.0607C22.5988 16.9465 22.6316 16.0289 23.1231 16.1927C23.1887 15.7667 23.287 15.5701 23.3525 15.4062H23.2214C22.9265 15.4062 22.6643 15.7995 22.6643 15.7995L22.7299 15.439H22.0744L21.6484 18.0607H22.4022Z"
    fill="white" />
</svg>