<svg width="32" height="32" viewBox="0 0 32 32" fill="none" xmlns="http://www.w3.org/2000/svg">
  <rect x="0.5" y="0.5" width="31" height="31" stroke="#C4C4C4" />
  <path
    d="M26.7738 13H21.5605C21.8642 14.7209 23.5345 16.3405 25.3566 16.3405H29.507C29.5576 16.1887 29.5576 15.9356 29.5576 15.7838C29.5576 14.2654 28.2922 13 26.7738 13Z"
    fill="#DCDCDC" />
  <path d="M22.0156 16.6445V20.8455H24.5463V18.6185H26.7733C27.9881 18.6185 29.051 17.758 29.4053 16.6445H22.0156Z"
    fill="#B8B8B8" />
  <path
    d="M13.1074 13V20.7946H15.3344C15.3344 20.7946 15.8912 20.7946 16.1949 20.2378C17.7133 17.2516 18.1688 16.3405 18.1688 16.3405H18.4725V20.7946H21.0032V13H18.7762C18.7762 13 18.2194 13.0506 17.9158 13.5568C16.6504 16.1381 15.9418 17.454 15.9418 17.454H15.6381V13H13.1074Z"
    fill="#B8B8B8" />
  <path
    d="M2.47852 20.8454V13.0508H5.00922C5.00922 13.0508 5.71782 13.0508 6.12274 14.1643C7.13502 17.0999 7.23625 17.5048 7.23625 17.5048C7.23625 17.5048 7.4387 16.7962 8.34975 14.1643C8.75466 13.0508 9.46326 13.0508 9.46326 13.0508H11.994V20.8454H9.46326V16.6444H9.15958L7.74238 20.8454H6.62888L5.21169 16.6444H4.908V20.8454H2.47852Z"
    fill="#B8B8B8" />
</svg>