<svg width="28" height="28" viewBox="0 0 28 28" fill="none" xmlns="http://www.w3.org/2000/svg">
<circle cx="14" cy="14" r="14" fill="#00529C"/>
<path fill-rule="evenodd" clip-rule="evenodd" d="M15.3128 9.87089C15.3128 8.98711 14.5542 8.26846 13.6217 8.26846C12.6899 8.26846 11.9306 8.98711 11.9306 9.87089C11.9306 10.754 12.6899 11.4731 13.6217 11.4731C14.5542 11.4731 15.3128 10.754 15.3128 9.87089ZM17.7065 9.87094C17.7065 12.0049 15.8752 13.7407 13.6223 13.7407C11.3699 13.7407 9.53808 12.0049 9.53808 9.87094C9.53808 7.73629 11.3699 6 13.6223 6C15.8752 6 17.7065 7.73629 17.7065 9.87094ZM17.6573 15.9696C16.9188 16.4092 16.117 16.7209 15.2856 16.9004L17.5688 19.0645C18.0365 19.5068 18.0365 20.2252 17.5688 20.6681C17.1016 21.1109 16.3443 21.1109 15.8775 20.6681L13.6327 18.5415L11.3899 20.6681C11.156 20.8892 10.8495 20.9999 10.5431 20.9999C10.2371 20.9999 9.93119 20.8892 9.69733 20.6681C9.23009 20.2252 9.23009 19.5073 9.69684 19.0645L11.9803 16.9004C11.1489 16.7209 10.3471 16.4087 9.60862 15.9696C9.04974 15.6357 8.88186 14.936 9.234 14.4059C9.58516 13.875 10.3237 13.7152 10.8835 14.0492C12.5555 15.046 14.7094 15.0462 16.3824 14.0492C16.9422 13.7152 17.6805 13.875 18.0324 14.4059C18.3845 14.9355 18.2162 15.6357 17.6573 15.9696Z" fill="white"/>
</svg>
