<svg width="10" height="15" viewBox="0 0 10 15" fill="none" xmlns="http://www.w3.org/2000/svg">
<path fill-rule="evenodd" clip-rule="evenodd" d="M6.31276 3.87089C6.31276 2.98711 5.55423 2.26846 4.62171 2.26846C3.68991 2.26846 2.93065 2.98711 2.93065 3.87089C2.93065 4.75398 3.68991 5.47309 4.62171 5.47309C5.55423 5.47309 6.31276 4.75398 6.31276 3.87089ZM8.70648 3.87094C8.70648 6.00489 6.87515 7.74072 4.62228 7.74072C2.3699 7.74072 0.538084 6.00489 0.538084 3.87094C0.538084 1.73629 2.3699 0 4.62228 0C6.87515 0 8.70648 1.73629 8.70648 3.87094ZM8.65727 9.96962C7.91878 10.4092 7.11699 10.7209 6.28564 10.9004L8.56881 13.0645C9.03654 13.5068 9.03654 14.2252 8.56881 14.6681C8.10157 15.1109 7.34426 15.1109 6.87751 14.6681L4.6327 12.5415L2.38985 14.6681C2.15599 14.8892 1.84955 14.9999 1.5431 14.9999C1.23715 14.9999 0.931194 14.8892 0.69733 14.6681C0.23009 14.2252 0.23009 13.5073 0.696841 13.0645L2.98026 10.9004C2.1489 10.7209 1.34712 10.4087 0.608623 9.96962C0.0497431 9.63565 -0.118141 8.93599 0.234 8.40587C0.585163 7.87504 1.32366 7.71524 1.88351 8.0492C3.55551 9.046 5.70941 9.04624 7.38238 8.0492C7.94224 7.71524 8.68049 7.87504 9.03239 8.40587C9.38453 8.93553 9.21615 9.63565 8.65727 9.96962Z" fill="white"/>
</svg>
