<svg width="74" height="17" viewBox="0 0 74 17" fill="none" xmlns="http://www.w3.org/2000/svg">
<path d="M0.275688 8.31299C0.275688 8.41064 0.319397 8.48389 0.406815 8.54492L9.86254 16.5283C9.93539 16.5894 10.0228 16.626 10.1394 16.626C10.3725 16.626 10.5327 16.4795 10.5327 16.3086C10.5327 16.2109 10.5036 16.1133 10.4308 16.0522L4.48633 11.0718L1.48497 8.59375L4.41348 8.63037H73.1212C73.3252 8.63037 73.5 8.49609 73.5 8.31299C73.5 8.12988 73.3252 7.9834 73.1212 7.9834H4.41348L1.48497 8.02002L4.48633 5.5542L10.4308 0.561523C10.5182 0.500488 10.5327 0.415039 10.5327 0.317383C10.5327 0.146484 10.3725 0 10.1394 0C10.0228 0 9.90625 0.0244141 9.70227 0.20752L0.406815 8.06885C0.319397 8.14209 0.275688 8.21533 0.275688 8.31299Z" fill="black"/>
</svg>
