<svg width="20" height="20" viewBox="0 0 20 20" fill="none" xmlns="http://www.w3.org/2000/svg">
<path d="M10 2.5C10.6181 2.5 11.2223 2.68328 11.7362 3.02666C12.2501 3.37004 12.6506 3.85809 12.8871 4.42911C13.1236 5.00013 13.1855 5.62847 13.065 6.23466C12.9444 6.84085 12.6467 7.39767 12.2097 7.83471C11.7727 8.27175 11.2158 8.56937 10.6097 8.68995C10.0035 8.81053 9.37513 8.74865 8.80412 8.51212C8.2331 8.2756 7.74504 7.87506 7.40166 7.36116C7.05828 6.84725 6.875 6.24307 6.875 5.625C6.875 4.7962 7.20424 4.00134 7.79029 3.41529C8.37634 2.82924 9.1712 2.5 10 2.5ZM10 1.25C9.13471 1.25 8.28885 1.50659 7.56938 1.98732C6.84992 2.46805 6.28916 3.15133 5.95803 3.95076C5.6269 4.75019 5.54026 5.62985 5.70907 6.47852C5.87788 7.32719 6.29456 8.10674 6.90641 8.71859C7.51826 9.33045 8.29781 9.74712 9.14648 9.91593C9.99515 10.0847 10.8748 9.99811 11.6742 9.66697C12.4737 9.33584 13.1569 8.77508 13.6377 8.05562C14.1184 7.33615 14.375 6.49029 14.375 5.625C14.375 4.46468 13.9141 3.35188 13.0936 2.53141C12.2731 1.71094 11.1603 1.25 10 1.25Z" fill="#333333"/>
<path d="M17 19H15.6V15.6667C15.6 15.2289 15.5095 14.7955 15.3336 14.3911C15.1577 13.9866 14.8999 13.6192 14.5749 13.3096C14.2499 13.0001 13.864 12.7546 13.4394 12.5871C13.0148 12.4196 12.5596 12.3333 12.1 12.3333H7.9C6.97174 12.3333 6.0815 12.6845 5.42513 13.3096C4.76875 13.9348 4.4 14.7826 4.4 15.6667V19H3V15.6667C3 14.429 3.51625 13.242 4.43518 12.3668C5.35411 11.4917 6.60044 11 7.9 11H12.1C13.3996 11 14.6459 11.4917 15.5648 12.3668C16.4838 13.242 17 14.429 17 15.6667V19Z" fill="#333333"/>
</svg>
