<svg width="14" height="18" viewBox="0 0 14 18" fill="none" xmlns="http://www.w3.org/2000/svg">
  <path
    d="M7 1.5C7.61807 1.5 8.22225 1.68328 8.73616 2.02666C9.25006 2.37004 9.6506 2.85809 9.88713 3.42911C10.1236 4.00013 10.1855 4.62847 10.065 5.23466C9.94438 5.84085 9.64675 6.39767 9.20971 6.83471C8.77267 7.27175 8.21585 7.56937 7.60966 7.68995C7.00347 7.81053 6.37513 7.74865 5.80412 7.51212C5.2331 7.2756 4.74504 6.87506 4.40166 6.36116C4.05828 5.84725 3.875 5.24307 3.875 4.625C3.875 3.7962 4.20424 3.00134 4.79029 2.41529C5.37634 1.82924 6.1712 1.5 7 1.5ZM7 0.25C6.13471 0.25 5.28885 0.506589 4.56938 0.98732C3.84992 1.46805 3.28916 2.15133 2.95803 2.95076C2.6269 3.75019 2.54026 4.62985 2.70907 5.47852C2.87788 6.32719 3.29456 7.10674 3.90641 7.71859C4.51826 8.33045 5.29781 8.74712 6.14648 8.91593C6.99515 9.08474 7.87481 8.99811 8.67424 8.66697C9.47367 8.33584 10.1569 7.77508 10.6377 7.05562C11.1184 6.33615 11.375 5.49029 11.375 4.625C11.375 3.46468 10.9141 2.35188 10.0936 1.53141C9.27312 0.710936 8.16032 0.25 7 0.25Z"
    fill="#333333" />
  <path
    d="M14 18H12.6V14.6667C12.6 14.2289 12.5095 13.7955 12.3336 13.3911C12.1577 12.9866 11.8999 12.6192 11.5749 12.3096C11.2499 12.0001 10.864 11.7546 10.4394 11.5871C10.0148 11.4196 9.55963 11.3333 9.1 11.3333H4.9C3.97174 11.3333 3.0815 11.6845 2.42513 12.3096C1.76875 12.9348 1.4 13.7826 1.4 14.6667V18H0V14.6667C0 13.429 0.516249 12.242 1.43518 11.3668C2.35411 10.4917 3.60044 10 4.9 10H9.1C10.3996 10 11.6459 10.4917 12.5648 11.3668C13.4838 12.242 14 13.429 14 14.6667V18Z"
    fill="#333333" />
</svg>