<svg width="20" height="20" viewBox="0 0 20 20" fill="none" xmlns="http://www.w3.org/2000/svg">
<path d="M7.56938 1.98732C8.28885 1.50659 9.13471 1.25 10 1.25C11.1603 1.25 12.2731 1.71094 13.0936 2.53141C13.9141 3.35188 14.375 4.46468 14.375 5.625C14.375 6.49029 14.1184 7.33615 13.6377 8.05562C13.1569 8.77508 12.4737 9.33584 11.6742 9.66697C10.8748 9.99811 9.99515 10.0847 9.14648 9.91593C8.29781 9.74712 7.51826 9.33045 6.90641 8.71859C6.29456 8.10674 5.87788 7.32719 5.70907 6.47852C5.54026 5.62985 5.6269 4.75019 5.95803 3.95076C6.28916 3.15133 6.84992 2.46805 7.56938 1.98732Z" fill="#00529C"/>
<path d="M17 19H15.6C15.6 19 12.1869 19 10 19C7.81306 19 4.4 19 4.4 19H3V15.6667C3 14.429 3.51625 13.242 4.43518 12.3668C5.35411 11.4917 6.60044 11 7.9 11H12.1C13.3996 11 14.6459 11.4917 15.5648 12.3668C16.4838 13.242 17 14.429 17 15.6667V19Z" fill="#00529C"/>
</svg>
