<svg width="32" height="32" viewBox="0 0 32 32" fill="none" xmlns="http://www.w3.org/2000/svg">
  <rect x="0.5" y="0.5" width="31" height="31" stroke="#C4C4C4" />
  <path
    d="M26.8315 13.1074H25.2927C24.8275 13.1074 24.4696 13.2506 24.2548 13.7158L21.3203 20.408H23.396C23.396 20.408 23.7538 19.5133 23.8254 19.2986C24.0401 19.2986 26.08 19.2986 26.3663 19.2986C26.4379 19.5491 26.6168 20.3722 26.6168 20.3722H28.4777L26.8315 13.1074ZM24.398 17.7955C24.577 17.3661 25.1853 15.7557 25.1853 15.7557C25.1853 15.7914 25.3643 15.3262 25.4358 15.0757L25.579 15.7199C25.579 15.7199 25.9726 17.4734 26.0442 17.8313H24.398V17.7955Z"
    fill="#B8B8B8" />
  <path
    d="M21.4636 18.0102C21.4636 19.5132 20.1036 20.5153 17.9922 20.5153C17.0975 20.5153 16.2387 20.3363 15.7734 20.1216L16.0598 18.4754L16.3103 18.5828C16.9544 18.8691 17.3839 18.9764 18.1711 18.9764C18.7438 18.9764 19.3521 18.7617 19.3521 18.2607C19.3521 17.9386 19.1016 17.7239 18.3143 17.366C17.5628 17.0081 16.5608 16.4356 16.5608 15.3977C16.5608 13.9662 17.9564 13 19.9247 13C20.6763 13 21.3204 13.1431 21.7141 13.3221L21.4278 14.8967L21.2846 14.7536C20.9268 14.6104 20.4615 14.4673 19.7816 14.4673C19.03 14.5031 18.6722 14.8251 18.6722 15.1114C18.6722 15.4335 19.1016 15.684 19.7816 16.0061C20.9268 16.5429 21.4636 17.1513 21.4636 18.0102Z"
    fill="#B8B8B8" />
  <path
    d="M4 13.1803L4.03579 13.0371H7.11347C7.54291 13.0371 7.86499 13.1803 7.97235 13.6455L8.65233 16.8663C7.97235 15.1485 6.39773 13.7528 4 13.1803Z"
    fill="#DCDCDC" />
  <path
    d="M12.983 13.1081L9.86954 20.3728H7.7581L5.96875 14.289C7.25708 15.1121 8.33068 16.4005 8.72437 17.2951L8.93907 18.0466L10.8716 13.0723H12.983V13.1081Z"
    fill="#B8B8B8" />
  <path d="M13.8053 13.0723H15.7736L14.521 20.3728H12.5527L13.8053 13.0723Z" fill="#B8B8B8" />
</svg>