<svg width="28" height="28" viewBox="0 0 28 28" fill="none" xmlns="http://www.w3.org/2000/svg">
<circle cx="14" cy="14" r="14" fill="#00529C"/>
<path fill-rule="evenodd" clip-rule="evenodd" d="M21.3916 10.5688C21.4949 10.2412 21.3916 10 20.8969 10H19.2636C18.848 10 18.6564 10.2082 18.5524 10.438C18.5524 10.438 17.7218 12.3556 16.5452 13.6012C16.1644 13.9624 15.9914 14.077 15.7836 14.077C15.6797 14.077 15.5235 13.9624 15.5235 13.6342V10.5688C15.5235 10.1752 15.409 10 15.0631 10H12.4946C12.2352 10 12.079 10.1824 12.079 10.3558C12.079 10.7284 12.6676 10.8148 12.7279 11.8636V14.1424C12.7279 14.6422 12.6327 14.7328 12.4249 14.7328C11.8712 14.7328 10.5241 12.8062 9.72454 10.6018C9.56961 10.1728 9.41282 10 8.99531 10H7.36077C6.89411 10 6.80078 10.2082 6.80078 10.438C6.80078 10.8472 7.35455 12.88 9.37984 15.5686C10.73 17.4046 12.6309 18.4 14.3625 18.4C15.401 18.4 15.5291 18.1792 15.5291 17.7982V16.4104C15.5291 15.9682 15.6274 15.88 15.9566 15.88C16.1993 15.88 16.6143 15.9952 17.5837 16.8802C18.6912 17.9296 18.8735 18.4 19.497 18.4H21.1303C21.5969 18.4 21.8309 18.1792 21.6965 17.7424C21.5484 17.308 21.0195 16.6774 20.3183 15.9292C19.9375 15.5032 19.3663 15.0442 19.1927 14.8144C18.9507 14.5198 19.0197 14.3884 19.1927 14.1262C19.1927 14.1262 21.1838 11.4706 21.391 10.5688H21.3916Z" fill="white"/>
</svg>
