<svg width="28" height="28" viewBox="0 0 28 28" fill="none" xmlns="http://www.w3.org/2000/svg">
<circle cx="14" cy="14" r="14" fill="#00529C"/>
<path d="M17.3594 15.4648C17.1778 15.3715 16.2728 14.9281 16.1045 14.8681C15.9361 14.8048 15.8128 14.7748 15.6911 14.9615C15.5678 15.1465 15.2178 15.5581 15.1078 15.6831C15.0011 15.8065 14.8928 15.8215 14.7111 15.7298C13.6312 15.1898 12.9228 14.7665 12.2112 13.5448C12.0228 13.2198 12.3995 13.2432 12.7512 12.5415C12.8112 12.4182 12.7812 12.3132 12.7345 12.2198C12.6878 12.1265 12.3212 11.2232 12.1678 10.8549C12.0195 10.4965 11.8662 10.5465 11.7545 10.5399C11.6478 10.5332 11.5262 10.5332 11.4029 10.5332C11.2795 10.5332 11.0812 10.5799 10.9129 10.7615C10.7445 10.9465 10.2695 11.3915 10.2695 12.2948C10.2695 13.1982 10.9279 14.0732 11.0179 14.1965C11.1112 14.3198 12.3128 16.1731 14.1578 16.9715C15.3245 17.4748 15.7811 17.5181 16.3645 17.4315C16.7194 17.3781 17.4511 16.9881 17.6028 16.5565C17.7544 16.1265 17.7544 15.7581 17.7094 15.6815C17.6644 15.5998 17.5411 15.5531 17.3594 15.4648Z" fill="white"/>
<path d="M20.8874 11.1065C20.5108 10.2115 19.9708 9.40817 19.2824 8.71818C18.5941 8.02985 17.7908 7.48819 16.8941 7.1132C15.9775 6.7282 15.0042 6.5332 14.0008 6.5332H13.9675C12.9575 6.5382 11.9792 6.7382 11.0592 7.13153C10.1709 7.51152 9.37424 8.05152 8.69258 8.73984C8.01092 9.42817 7.47593 10.2282 7.10593 11.1198C6.72261 12.0431 6.52927 13.0248 6.53427 14.0348C6.53927 15.1914 6.81594 16.3397 7.33426 17.3664V19.8997C7.33426 20.323 7.67759 20.6664 8.10092 20.6664H10.6359C11.6625 21.1847 12.8109 21.4614 13.9675 21.4664H14.0025C15.0008 21.4664 15.9692 21.273 16.8808 20.8947C17.7725 20.523 18.5741 19.9897 19.2608 19.308C19.9491 18.6264 20.4908 17.8297 20.8691 16.9414C21.2624 16.0214 21.4624 15.0431 21.4674 14.0331C21.4724 13.0181 21.2758 12.0331 20.8874 11.1065ZM18.3691 18.4064C17.2008 19.563 15.6508 20.1997 14.0008 20.1997H13.9725C12.9675 20.1947 11.9692 19.9447 11.0876 19.4747L10.9476 19.3997H8.60091V17.0531L8.52592 16.9131C8.05592 16.0314 7.80593 15.0331 7.80093 14.0281C7.79426 12.3665 8.42925 10.8065 9.59424 9.6315C10.7576 8.45651 12.3125 7.80652 13.9742 7.79985H14.0025C14.8358 7.79985 15.6442 7.96152 16.4058 8.28151C17.1491 8.59318 17.8158 9.04151 18.3891 9.61483C18.9608 10.1865 19.4108 10.8548 19.7224 11.5981C20.0458 12.3681 20.2074 13.1848 20.2041 14.0281C20.1941 15.6881 19.5424 17.2431 18.3691 18.4064Z" fill="white"/>
</svg>
