<svg width="28" height="28" viewBox="0 0 28 28" fill="none" xmlns="http://www.w3.org/2000/svg">
<circle cx="14" cy="14" r="14" fill="#00529C"/>
<path d="M22.444 13.4591C22.444 13.4203 22.444 13.3762 22.4422 13.3251C22.4403 13.1822 22.4366 13.0218 22.4329 12.8507C22.418 12.3588 22.3919 11.8685 22.351 11.4065C22.2952 10.77 22.2134 10.2392 22.1017 9.84067C21.984 9.42478 21.7531 9.04548 21.4322 8.74068C21.1114 8.43588 20.7117 8.21625 20.2733 8.10376C19.7468 7.96974 18.7163 7.88686 17.2654 7.83572C16.5753 7.81104 15.8369 7.79517 15.0984 7.78635C14.8398 7.78282 14.5999 7.78106 14.3841 7.7793H13.8372C13.6215 7.78106 13.3815 7.78282 13.123 7.78635C12.3845 7.79517 11.646 7.81104 10.9559 7.83572C9.50502 7.88863 8.47266 7.9715 7.9481 8.10376C7.50949 8.21598 7.10969 8.43551 6.78877 8.74035C6.46786 9.04519 6.23709 9.42464 6.11961 9.84067C6.00614 10.2392 5.92615 10.77 5.87035 11.4065C5.82943 11.8685 5.80339 12.3588 5.7885 12.8507C5.78292 13.0218 5.78106 13.1822 5.7792 13.3251C5.7792 13.3762 5.77734 13.4203 5.77734 13.4591V13.5578C5.77734 13.5966 5.77734 13.6407 5.7792 13.6919C5.78106 13.8347 5.78478 13.9952 5.7885 14.1662C5.80339 14.6582 5.82943 15.1484 5.87035 15.6104C5.92615 16.247 6.008 16.7777 6.11961 17.1763C6.3577 18.0209 7.05711 18.6875 7.9481 18.9132C8.47266 19.0472 9.50502 19.1301 10.9559 19.1812C11.646 19.2059 12.3845 19.2218 13.123 19.2306C13.3815 19.2341 13.6215 19.2359 13.8372 19.2376H14.3841C14.5999 19.2359 14.8398 19.2341 15.0984 19.2306C15.8369 19.2218 16.5753 19.2059 17.2654 19.1812C18.7163 19.1283 19.7487 19.0454 20.2733 18.9132C21.1642 18.6875 21.8637 18.0227 22.1017 17.1763C22.2152 16.7777 22.2952 16.247 22.351 15.6104C22.3919 15.1484 22.418 14.6582 22.4329 14.1662C22.4384 13.9952 22.4403 13.8347 22.4422 13.6919C22.4422 13.6407 22.444 13.5966 22.444 13.5578V13.4591ZM21.1047 13.5508C21.1047 13.5878 21.1047 13.6284 21.1029 13.676C21.101 13.8135 21.0973 13.9652 21.0936 14.1292C21.0805 14.5982 21.0545 15.0673 21.0154 15.5028C20.9652 16.0706 20.8945 16.5362 20.8071 16.8483C20.6918 17.2556 20.3532 17.5783 19.9254 17.6859C19.5348 17.7846 18.5508 17.864 17.2134 17.9116C16.5363 17.9363 15.8071 17.9521 15.0798 17.961C14.825 17.9645 14.5887 17.9662 14.3767 17.9662H13.8447L13.1416 17.961C12.4142 17.9521 11.6869 17.9363 11.008 17.9116C9.67057 17.8622 8.68471 17.7846 8.29595 17.6859C7.86812 17.5765 7.52958 17.2556 7.41425 16.8483C7.32682 16.5362 7.25614 16.0706 7.20592 15.5028C7.16685 15.0673 7.14267 14.5982 7.12779 14.1292C7.12221 13.9652 7.12035 13.8118 7.11849 13.676C7.11849 13.6284 7.11663 13.5861 7.11663 13.5508V13.4661C7.11663 13.4291 7.11663 13.3886 7.11849 13.3409C7.12035 13.2034 7.12407 13.0518 7.12779 12.8878C7.14081 12.4187 7.16685 11.9497 7.20592 11.5141C7.25614 10.9463 7.32682 10.4808 7.41425 10.1687C7.52958 9.76132 7.86812 9.43862 8.29595 9.33106C8.68657 9.23231 9.67057 9.15296 11.008 9.10535C11.6851 9.08066 12.4142 9.06479 13.1416 9.05597C13.3964 9.05245 13.6326 9.05068 13.8447 9.05068H14.3767L15.0798 9.05597C15.8071 9.06479 16.5344 9.08066 17.2134 9.10535C18.5508 9.15472 19.5366 9.23231 19.9254 9.33106C20.3532 9.44039 20.6918 9.76132 20.8071 10.1687C20.8945 10.4808 20.9652 10.9463 21.0154 11.5141C21.0545 11.9497 21.0787 12.4187 21.0936 12.8878C21.0991 13.0518 21.101 13.2052 21.1029 13.3409C21.1029 13.3886 21.1047 13.4309 21.1047 13.4661V13.5508ZM12.4552 15.8714L16.7706 13.4908L12.4552 11.1456V15.8714Z" fill="white"/>
</svg>
