<svg width="100" height="15" viewBox="0 0 100 15" fill="none" xmlns="http://www.w3.org/2000/svg">
<g clip-path="url(#clip0)">
<path d="M14.6445 0.511719H25.7658V3.42747H19.0463V5.81146H25.3579V8.77158H19.0463V11.4575H26.1473V14.3322H14.6445V0.511719Z" fill="#C11313"/>
<path d="M41.7793 0.511719H46.1989L51.4371 8.12791V0.511719H54.6581V14.4077H50.2193L45.0069 6.90611V14.3322H41.7793V0.511719Z" fill="#C11313"/>
<path d="M56.7432 0.511719H61.288V14.3322H56.7432V0.511719Z" fill="#C11313"/>
<path d="M63.3652 0.441406H67.7842L73.0217 8.05825V0.441406H76.2428V14.3387H71.8046L66.5929 6.8358V14.2619H63.3652V0.441406Z" fill="#C11313"/>
<path d="M34.7524 5.92801H32.2048V3.24337H34.6511C34.6511 3.24337 35.8212 3.42019 35.7451 4.69695C35.6689 5.97702 34.7524 5.92801 34.7524 5.92801ZM39.9925 13.4972C39.8912 13.1396 39.8654 13.37 39.9164 11.198C39.9674 9.02521 39.5091 8.46299 39.5091 8.46299C38.9237 7.41602 38.135 7.13457 38.135 7.13457C38.135 7.13457 39.9925 6.3419 39.9925 4.09433C39.9925 0.78058 36.8311 0.511719 36.8311 0.511719H27.6772L27.6494 14.3322H32.2048V8.77224H33.7326C33.9445 8.77224 34.5378 8.82588 34.7875 8.94707C35.2318 9.16295 35.3199 9.40334 35.361 9.48612C35.4875 9.74173 35.412 11.6324 35.412 11.6324C35.412 11.6324 35.412 13.2157 35.5901 13.727C35.7676 14.2389 36.1497 14.3322 36.1497 14.3322H40.476C40.476 14.3322 40.0945 13.8548 39.9925 13.4972Z" fill="#C11313"/>
<path d="M81.7553 8.30339L83.3406 4.04201L84.8823 8.30339H81.7553ZM86.8425 0.511719H81.1116L76.0801 14.3316H79.4693L80.8123 11.2172H85.7253L87.0683 14.3316H91.8806L86.8425 0.511719Z" fill="#C11313"/>
<path d="M7.5729 6.11343H5.02534V3.42813H7.47092C7.47092 3.42813 8.64173 3.60428 8.56491 4.8817C8.48875 6.16244 7.5729 6.11343 7.5729 6.11343ZM7.5729 11.4582H5.02534V8.77224H7.47092C7.47092 8.77224 8.64173 8.94906 8.56491 10.2258C8.48875 11.5065 7.5729 11.4582 7.5729 11.4582ZM11.2873 6.9816C11.2873 6.9816 12.9005 6.05979 12.8256 4.06651C12.7011 0.755415 9.57413 0.511719 9.57413 0.511719H0.418945L0.426892 14.3163C0.426892 14.3163 10.6906 14.3057 10.3436 14.3322C9.99729 14.3587 11.4813 14.313 12.1118 13.6098C12.3608 13.3343 13.3468 12.5707 13.4455 10.7688C13.5825 8.24777 11.2873 6.9816 11.2873 6.9816Z" fill="#C11313"/>
<path d="M89.0547 0.511719H98.9694V8.30141H91.8963L89.0547 0.511719Z" fill="#C11313"/>
<path d="M91.9961 5.28584V3.53096H94.0145V1.50391H95.7628V3.53096H97.7786V5.28584H95.7628V7.3129H94.0145V5.28584H91.9961Z" fill="white"/>
</g>
<defs>
<clipPath id="clip0">
<rect width="99.3882" height="14.85" fill="white"/>
</clipPath>
</defs>
</svg>
