<svg xmlns="http://www.w3.org/2000/svg" xmlns:xlink="http://www.w3.org/1999/xlink" xmlns:serif="http://www.serif.com/"
  width="100%" height="100%" viewBox="0 0 111 30" version="1.1" xml:space="preserve"
  style="fill-rule:evenodd;clip-rule:evenodd;stroke-linejoin:round;stroke-miterlimit:1.41421;">
  <g>
    <path
      d="M17.145,0.076l13.411,0l0,3.505l-8.154,0l0,2.896l7.62,0l0,3.505l-7.62,0l0,3.277l8.611,0l0,3.428l-13.868,0l0,-16.611Z"
      style="fill:#000000;fill-rule:nonzero;" />
    <path
      d="M49.834,0.076l5.334,0l6.324,9.144l0,-9.144l3.886,0l0,16.688l-5.334,0l-6.324,-8.992l0,8.915l-3.886,0l0,-16.611Z"
      style="fill:#000000;fill-rule:nonzero;" />
    <rect x="67.893" y="0.076" width="5.486" height="16.611" style="fill:#000000;" />
    <path d="M75.894,0l5.334,0l6.324,9.144l0,-9.144l3.886,0l0,16.687l-5.41,0l-6.248,-8.991l0,8.915l-3.886,0l0,-16.611Z"
      style="fill:#000000;fill-rule:nonzero;" />
    <path
      d="M41.376,6.553l-3.048,0l0,-3.2l2.972,0c0,0 1.447,0.228 1.295,1.752c-0.152,1.524 -1.219,1.448 -1.219,1.448m6.324,9.144c-0.152,-0.457 -0.152,-0.152 -0.076,-2.743c0.076,-2.591 -0.457,-3.277 -0.457,-3.277c-0.686,-1.295 -1.676,-1.6 -1.676,-1.6c0,0 2.209,-0.914 2.209,-3.657c0,-3.963 -3.81,-4.268 -3.81,-4.268l-11.048,0l0,16.612l5.486,0l0,-6.706l1.829,0c0.228,0 0.99,0.076 1.295,0.229c0.533,0.228 0.61,0.533 0.686,0.609c0.152,0.305 0.076,2.591 0.076,2.591c0,0 0,1.905 0.229,2.515c0.228,0.609 0.685,0.762 0.685,0.762l5.182,0c0,-0.077 -0.534,-0.686 -0.61,-1.067"
      style="fill:#000000;fill-rule:nonzero;" />
    <path
      d="M98.068,9.449l1.904,-5.106l1.829,5.106l-3.733,0Zm6.095,-9.373l-6.857,0l-6.096,16.611l4.114,0l1.601,-3.733l5.943,0l1.6,3.733l5.791,0l-6.096,-16.611Z"
      style="fill:#000000;fill-rule:nonzero;" />
    <path
      d="M8.61,6.782l-3.048,0l0,-3.201l2.972,0c0,0 1.448,0.229 1.296,1.753c-0.153,1.524 -1.22,1.448 -1.22,1.448m0,6.477l-3.048,0l0,-3.201l2.972,0c0,0 1.448,0.229 1.296,1.753c-0.153,1.448 -1.22,1.448 -1.22,1.448m4.496,-5.411c0,0 1.981,-1.143 1.829,-3.505c-0.152,-3.962 -3.886,-4.267 -3.886,-4.267l-11.049,0l0,16.611c0,0 12.344,0 11.963,0c-0.381,0 1.372,0 2.134,-0.838c0.305,-0.304 1.524,-1.219 1.6,-3.429c0.152,-3.048 -2.591,-4.572 -2.591,-4.572"
      style="fill:#000000;fill-rule:nonzero;" />
  </g>
</svg>