<svg width="165" height="28" viewBox="0 0 165 28" fill="none" xmlns="http://www.w3.org/2000/svg">
<g clip-path="url(#clip0)">
<path d="M39.2508 14.6422H36.6968C35.9575 14.6422 35.4198 14.4435 35.0838 13.9797C34.8821 13.6484 34.7477 13.1846 34.7477 12.522V5.03516H30.043V13.3834C30.043 14.841 30.5807 16.0999 31.656 17.0937C32.7314 18.0875 34.0084 18.6176 35.5542 18.6176H43.9555V5.03516H39.2508V14.6422Z" fill="#00529C"/>
<path d="M59.7497 7.08923C58.4727 5.76412 56.9269 5.10156 55.1122 5.10156H46.3076V22.6593H51.0123V9.01065H53.4319C54.3729 9.01065 55.1122 9.34193 55.7171 9.93823C56.322 10.5345 56.5908 11.1971 56.5908 11.9922C56.5908 12.7872 56.2548 13.4498 55.6499 13.9136C55.045 14.4436 54.3057 14.6424 53.3647 14.6424H52.0205V18.6177H55.045C56.8597 18.6177 58.4727 17.9552 59.7497 16.6963C61.0267 15.3712 61.6988 13.8473 61.6988 11.9922C61.6988 10.0707 61.0267 8.41435 59.7497 7.08923Z" fill="#00529C"/>
<path fill-rule="evenodd" clip-rule="evenodd" d="M80.989 18.6176C79.8464 18.6176 78.8382 18.3526 78.0317 17.7563C77.2252 17.1599 76.6203 16.2986 76.2842 15.1723V18.6838H72.2516C71.0418 18.6838 69.9664 18.22 69.0255 17.2262C68.0173 16.2324 67.5469 15.106 67.5469 13.9134V5.03516H72.1844V13.1184C72.1844 13.6484 72.3188 14.0459 72.5877 14.311C72.8565 14.576 73.327 14.6422 73.8647 14.6422H76.217V5.03516H80.9218V13.1184C80.9218 14.1784 81.5266 14.7085 82.6692 14.7085H85.0216V5.03516H89.7263V18.6176H80.989Z" fill="#00529C"/>
<path fill-rule="evenodd" clip-rule="evenodd" d="M117.08 5.03516C118.223 5.03516 119.231 5.30018 120.037 5.89648C120.844 6.49278 121.449 7.35411 121.785 8.48045V5.03516H125.817C127.027 5.03516 128.103 5.49895 129.044 6.49278C130.052 7.48662 130.522 8.61296 130.522 9.80557V18.6176H125.885V10.5344C125.885 10.0043 125.75 9.6068 125.481 9.34178C125.213 9.07675 124.742 9.0105 124.204 9.0105H121.852V18.6176H117.147V10.6006C117.147 9.54054 116.542 9.0105 115.4 9.0105H113.048V18.6176H108.343V5.03516H117.08Z" fill="#00529C"/>
<path fill-rule="evenodd" clip-rule="evenodd" d="M92.0781 5.03516H96.7829V12.522C96.7829 13.1846 96.9173 13.6484 97.1189 13.9797C97.455 14.4435 97.9926 14.6422 98.732 14.6422H101.286V5.03516H105.991V18.6176H97.5894C96.1107 18.6176 94.8337 18.0875 93.6912 17.0937C92.6158 16.0999 92.0781 14.841 92.0781 13.3834V5.03516Z" fill="#00529C"/>
<path fill-rule="evenodd" clip-rule="evenodd" d="M132.875 1.05859H137.58V14.641H140.403C141.209 14.641 141.814 14.376 142.352 13.7797C142.889 13.1834 143.158 12.5208 143.158 11.7258C143.158 10.9307 142.822 10.2681 142.217 9.73809C141.612 9.20804 140.873 8.94302 140.067 8.94302H138.655V4.96768H141.814C143.696 4.96768 145.242 5.63024 146.519 6.95535C147.729 8.21421 148.333 9.80434 148.333 11.5932C148.333 13.4484 147.729 15.0385 146.519 16.3637C145.242 17.8213 143.696 18.4838 141.814 18.4838H132.942V1.05859H132.875Z" fill="#00529C"/>
<path fill-rule="evenodd" clip-rule="evenodd" d="M150.216 22.5931L153.307 17.8227C152.165 17.3589 151.291 16.6301 150.552 15.6362C149.745 14.5099 149.409 13.3173 149.409 11.9259C149.409 10.2695 150.014 8.67937 151.291 7.288C152.635 5.83038 154.181 5.10156 155.929 5.10156H164.8V18.684H160.096V9.01065H157.542C156.735 9.01065 155.996 9.27567 155.391 9.80572C154.786 10.3358 154.517 10.9983 154.517 11.8596C154.517 12.721 154.786 13.3835 155.391 13.9136C155.996 14.4436 156.668 14.7086 157.474 14.7086H159.76L155.458 22.6593H150.216V22.5931Z" fill="#00529C"/>
<path fill-rule="evenodd" clip-rule="evenodd" d="M23.1876 0C21.1713 0 19.4238 1.25886 18.6845 2.98151C18.5501 3.31278 18.4157 3.57781 18.4157 3.57781L13.9798 13.8474L9.61109 3.57781C9.61109 3.57781 9.47667 3.31278 9.34225 2.98151C8.60294 1.25886 6.92268 0 4.83915 0C2.15073 0 0 2.12018 0 4.77041V18.6179V27.1648L4.83915 24.3821V18.6841V4.83667C4.83915 4.83667 6.4522 8.6795 7.93083 11.9923L9.54388 15.7026C9.54388 15.7026 9.54388 15.7026 9.54388 15.7689L9.61109 15.9014C10.4176 17.5578 12.0307 18.6841 13.9798 18.6841C15.9289 18.6841 17.6091 17.5578 18.3485 15.9014L18.4157 15.7689C18.4157 15.7689 18.4157 15.7689 18.4157 15.7026L20.1631 11.926C21.5746 8.61324 23.2548 4.77041 23.2548 4.77041V18.6179H28.094V4.77041C28.094 2.12018 25.876 0 23.1876 0Z" fill="#00529C"/>
</g>
<defs>
<clipPath id="clip0">
<rect width="164.8" height="27.1648" fill="white"/>
</clipPath>
</defs>
</svg>
